HIERARCHY
ROOT Hips
{
	OFFSET 0.000000 0.000000 0.000000
	CHANNELS 6 Xposition Yposition Zposition Zrotation Yrotation Xrotation 
	JOINT LHipJoint
	{
		OFFSET 0.000000 0.000000 0.000000
		CHANNELS 3 Zrotation Yrotation Xrotation
		JOINT LeftUpLeg
		{
			OFFSET 1.363060 -1.794630 0.839290
			CHANNELS 3 Zrotation Yrotation Xrotation
			JOINT LeftLeg
			{
				OFFSET 2.448110 -6.726130 0.000000
				CHANNELS 3 Zrotation Yrotation Xrotation
				JOINT LeftFoot
				{
					OFFSET 2.562200 -7.039590 0.000000
					CHANNELS 3 Zrotation Yrotation Xrotation
					JOINT LeftToeBase
					{
						OFFSET 0.157640 -0.433110 2.322550
						CHANNELS 3 Zrotation Yrotation Xrotation
						End Site
						{
							OFFSET 0.000000 0.000000 0.000000
						}
					}
				}
			}
		}
	}
	JOINT RHipJoint
	{
		OFFSET 0.000000 0.000000 0.000000
		CHANNELS 3 Zrotation Yrotation Xrotation
		JOINT RightUpLeg
		{
			OFFSET -1.305520 -1.794630 0.839290
			CHANNELS 3 Zrotation Yrotation Xrotation
			JOINT RightLeg
			{
				OFFSET -2.542530 -6.985550 0.000000
				CHANNELS 3 Zrotation Yrotation Xrotation
				JOINT RightFoot
				{
					OFFSET -2.568260 -7.056230 0.000000
					CHANNELS 3 Zrotation Yrotation Xrotation
					JOINT RightToeBase
					{
						OFFSET -0.164730 -0.452590 2.363150
						CHANNELS 3 Zrotation Yrotation Xrotation
						End Site
						{
							OFFSET 0.000000 0.000000 0.000000
						}
					}
				}
			}
		}
	}
	JOINT LowerBack
	{
		OFFSET 0.000000 0.000000 0.000000
		CHANNELS 3 Zrotation Yrotation Xrotation
		JOINT Spine
		{
			OFFSET 0.028270 2.035590 -0.193380
			CHANNELS 3 Zrotation Yrotation Xrotation
			JOINT Spine1
			{
				OFFSET 0.056720 2.048850 -0.042750
				CHANNELS 3 Zrotation Yrotation Xrotation
				JOINT Neck
				{
					OFFSET 0.000000 0.000000 0.000000
					CHANNELS 3 Zrotation Yrotation Xrotation
					JOINT Neck1
					{
						OFFSET -0.054170 1.746240 0.172020
						CHANNELS 3 Zrotation Yrotation Xrotation
						JOINT Head
						{
							OFFSET 0.104070 1.761360 -0.123970
							CHANNELS 3 Zrotation Yrotation Xrotation
							End Site
							{
								OFFSET 0.000000 0.000000 0.000000
							}
						}
					}
				}
				JOINT LeftShoulder
				{
					OFFSET 0.000000 0.000000 0.000000
					CHANNELS 3 Zrotation Yrotation Xrotation
					JOINT LeftArm
					{
						OFFSET 3.362410 1.200890 -0.311210
						CHANNELS 3 Zrotation Yrotation Xrotation
						JOINT LeftForeArm
						{
							OFFSET 4.983000 -0.000000 -0.000000
							CHANNELS 3 Zrotation Yrotation Xrotation
							JOINT LeftHand
							{
								OFFSET 3.483560 -0.000000 -0.000000
								CHANNELS 3 Zrotation Yrotation Xrotation
								JOINT LeftFingerBase
								{
									OFFSET 0.000000 0.000000 0.000000
									CHANNELS 3 Zrotation Yrotation Xrotation
									JOINT LeftHandIndex1
									{
										OFFSET 0.715260 -0.000000 -0.000000
										CHANNELS 3 Zrotation Yrotation Xrotation
										End Site
										{
											OFFSET 0.000000 0.000000 0.000000
										}
									}
								}
								JOINT LThumb
								{
									OFFSET 0.000000 0.000000 0.000000
									CHANNELS 3 Zrotation Yrotation Xrotation
									End Site
									{
										OFFSET 0.000000 0.000000 0.000000
									}
								}
							}
						}
					}
				}
				JOINT RightShoulder
				{
					OFFSET 0.000000 0.000000 0.000000
					CHANNELS 3 Zrotation Yrotation Xrotation
					JOINT RightArm
					{
						OFFSET -3.136600 1.374050 -0.404650
						CHANNELS 3 Zrotation Yrotation Xrotation
						JOINT RightForeArm
						{
							OFFSET -5.241900 -0.000000 -0.000000
							CHANNELS 3 Zrotation Yrotation Xrotation
							JOINT RightHand
							{
								OFFSET -3.444170 -0.000000 -0.000000
								CHANNELS 3 Zrotation Yrotation Xrotation
								JOINT RightFingerBase
								{
									OFFSET 0.000000 0.000000 0.000000
									CHANNELS 3 Zrotation Yrotation Xrotation
									JOINT RightHandIndex1
									{
										OFFSET -0.622530 -0.000000 -0.000000
										CHANNELS 3 Zrotation Yrotation Xrotation
										End Site
										{
											OFFSET 0.000000 0.000000 0.000000
										}
									}
								}
								JOINT RThumb
								{
									OFFSET 0.000000 0.000000 0.000000
									CHANNELS 3 Zrotation Yrotation Xrotation
									End Site
									{
										OFFSET 0.000000 0.000000 0.000000
									}
								}
							}
						}
					}
				}
			}
		}
	}
}
MOTION
Frames: 4
Frame Time: 0.008333
-11.771216 14.737643 -4.205946 147.068031 63.297199 161.655094 -8.667675 -1.611604 -1.899016 4.605938 11.015961 -18.919761 -1.746832 26.259903 74.535270 -7.270684 16.610875 10.727269 5.751763 1.593396 -9.315524 -8.410576 -3.773513 -6.445835 40.722225 -0.935569 -20.419730 -3.900473 -19.276165 43.480235 -16.226377 13.001269 -28.152992 -28.948518 -17.717584 49.415154 8.123872 2.407528 14.684661 -2.217471 1.293365 -7.425000 -8.100725 2.028552 8.517313 -3.028060 -2.796553 -17.629413 -2.211293 -2.855574 11.586935 14.605142 -20.732139 3.857492 10.024013 -0.206561 -1.465342 -79.973389 -26.842986 27.436730 43.986846 -72.217431 -6.641735 -11.226138 -35.641959 9.031212 -0.000000 0.000000 0.000000 0.000000 0.000000 -0.000000 -0.000000 0.000000 0.000000 -9.591746 -2.478851 3.893929 71.901422 17.499492 13.202246 12.605913 70.468237 27.170338 -4.680724 14.097749 1.330675 0.000000 -0.000000 0.000000 0.000000 -0.000000 0.000000 -0.000000 0.000000 -0.000000 
-11.681246 14.736261 -4.340676 145.964829 64.524075 160.796502 -9.340335 -1.149111 -1.422040 5.916838 9.245884 -21.674513 -1.672861 26.022676 76.705295 -5.834360 18.060210 11.116749 6.214134 1.462475 -9.906199 -7.979061 -3.686058 -6.897163 40.368079 -1.716609 -19.987181 -5.290472 -19.323963 44.314314 -15.677159 15.456835 -28.444374 -31.293657 -20.227515 53.128193 7.980914 2.122611 14.766708 -2.155556 1.279272 -7.494065 -7.710733 1.853907 7.999226 -3.160889 -2.685137 -17.141773 -2.106950 -2.776948 11.585965 15.084473 -20.671208 2.990011 9.568239 0.306659 -1.321353 -80.051660 -25.173834 25.620522 38.568572 -71.685413 -3.099872 -12.772105 -35.274692 9.475108 0.000000 0.000000 0.000000 0.000000 0.000000 0.000000 0.000000 0.000000 0.000000 -9.594849 -1.596640 4.183905 71.347600 19.973120 13.847169 12.592900 68.636818 27.915101 -6.155935 14.889311 1.193892 0.000000 -0.000000 0.000000 0.000000 -0.000000 -0.000000 0.000000 -0.000000 0.000000 
-11.594354 14.734234 -4.471607 144.386746 65.855069 159.296302 -9.758826 -0.761850 -1.113986 6.932742 7.779138 -23.955172 -1.176321 25.863548 78.472747 -4.798293 18.914468 11.492405 7.069939 1.109778 -10.928175 -7.616406 -3.500853 -7.429937 39.980119 -2.704320 -19.296746 -5.895235 -18.437962 45.211341 -15.749298 16.739316 -28.927137 -32.055000 -20.718889 54.286323 7.774147 1.771803 15.063841 -2.054412 1.181152 -7.562437 -7.444980 1.608606 7.083204 -3.223972 -2.645241 -16.306238 -2.044029 -2.753998 11.539692 14.839314 -20.558405 2.829682 9.278204 1.024611 -1.160370 -80.228772 -23.075787 23.918860 34.276733 -71.027951 -0.786823 -15.400931 -34.531368 10.176153 0.000000 0.000000 0.000000 0.000000 0.000000 0.000000 0.000000 0.000000 0.000000 -9.723472 -0.128669 4.455580 70.980827 21.881098 14.312674 12.831082 67.242051 28.122005 -2.827012 15.573486 1.762589 0.000000 -0.000000 0.000000 -0.000000 -0.000000 0.000000 0.000000 0.000000 0.000000 
-11.498168 14.743814 -4.594880 141.946941 67.065808 156.959150 -9.852446 -0.423485 -1.051102 6.830563 6.527069 -26.184022 -0.230579 25.302601 79.746590 -4.012393 18.803560 10.759167 7.523418 -0.883601 -10.472959 -7.471403 -3.197231 -7.850177 39.333980 -3.449923 -18.475206 -6.060461 -17.539319 45.838704 -15.597370 18.084318 -29.417880 -32.466379 -21.368821 54.929563 7.563962 1.526552 15.265731 -2.051966 1.392245 -7.603739 -7.607505 1.837308 6.554183 -3.086146 -2.655372 -15.778376 -2.131201 -2.780115 11.660305 14.493794 -20.515003 2.519616 9.419154 1.078498 -1.474263 -80.439041 -20.764397 22.449094 31.425695 -70.627148 0.917380 -15.896581 -33.933074 10.164430 -0.000000 0.000000 -0.000000 -0.000000 0.000000 -0.000000 -0.000000 0.000000 -0.000000 -9.625878 0.369655 4.794934 70.992700 23.394587 14.827697 12.768423 67.190112 28.695347 -4.009004 16.048122 1.632131 0.000000 -0.000000 0.000000 -0.000000 0.000000 0.000000 0.000000 -0.000000 0.000000 
